<svg xmlns="http://www.w3.org/2000/svg" width="140" height="140" fill="none"><path fill="#FFF3DA" fill-rule="evenodd" d="M44.584 119.481c-13.394-9.872-19.759-30.45-20.012-50.727-.35-20.301 5.29-40.227 16.462-48.962 11.173-8.734 27.758-6.205 40.07-1.453 12.19 4.825 20.012 11.849 31.341 23.366s26.094 27.407 24.465 42.465c-1.653 15.156-19.797 29.456-39.117 36.963-19.344 7.603-39.84 8.317-53.21-1.652z" clip-rule="evenodd"/><path fill="#FFC244" stroke="#1A1A1A" stroke-linecap="round" stroke-linejoin="round" stroke-width="2.195" d="M101.7 51.18H70.9v53.8h30.8v-53.8zM46 51.18l12.5-12.6 12.4 12.6v53.7H46v-53.7z"/><path fill="#fff" stroke="#1A1A1A" stroke-linecap="round" stroke-linejoin="round" stroke-width="2.195" d="M85 60.28h-6.2v6.2H85v-6.2zM96.8 60.28h-6.2v6.2h6.2v-6.2zM91.1 91.88h-6.2v13.1h6.2v-13.1zM61.5 60.28h-6.2v6.2h6.2v-6.2zM61.5 82.08h-6.2v6.2h6.2v-6.2zM70.9 51.18l-12.4-12.6h32l11.3 12.5H70.9v.1z"/><path fill="#fff" stroke="#1A1A1A" stroke-linecap="round" stroke-linejoin="round" stroke-width="2.195" d="M57.7 31.18H26.9v76.5h30.8v-76.5zM26.9 31.18H2v76.5h24.9v-76.5z"/><path fill="#FFC244" stroke="#1A1A1A" stroke-linecap="round" stroke-linejoin="round" stroke-width="2.195" d="M17.5 41.28h-6.2v6.2h6.2v-6.2zM41 41.28h-6.2v6.2H41v-6.2zM52.8 41.28h-6.1v6.2h6.2v-6.2h-.1zM41 62.98h-6.2v6.2H41v-6.2zM52.8 62.98h-6.1v6.2h6.2v-6.2h-.1zM47.2 94.58H41v13.1h6.2v-13.1zM17.5 62.98h-6.2v6.2h6.2v-6.2zM17.5 84.78h-6.2v6.2h6.2v-6.2z"/><path stroke="#1A1A1A" stroke-linecap="round" stroke-linejoin="round" stroke-width="2.195" d="M22.7 31.18v-13.6M19.5 26.78h7.4M23.2 20.98h3.7"/><path fill="#FFC244" d="M106.7 93.88v11.3-11.3z"/><path stroke="#1A1A1A" stroke-linecap="round" stroke-linejoin="round" stroke-width="2.195" d="M106.7 93.88v11.3"/><path fill="#fff" stroke="#1A1A1A" stroke-linecap="round" stroke-linejoin="round" stroke-width="2.195" d="M106.7 93.98c4.3 0 7.7-3.5 7.7-7.7s-3.5-7.7-7.7-7.7c-4.3 0-7.7 3.5-7.7 7.7s3.4 7.7 7.7 7.7z"/><path fill="#000" fill-rule="evenodd" d="M92.186 29.3c-1.077-.76-2.398-.977-3.27-.933a.873.873 0 11-.087-1.744c1.165-.058 2.897.214 4.364 1.25 1.516 1.07 2.66 2.895 2.66 5.729a.873.873 0 11-1.746 0c0-2.297-.892-3.576-1.92-4.302z" clip-rule="evenodd"/><path fill="#000" fill-rule="evenodd" d="M97.773 29.3c1.078-.76 2.399-.977 3.27-.933a.872.872 0 10.087-1.744c-1.164-.058-2.896.214-4.364 1.25-1.516 1.07-2.66 2.895-2.66 5.729a.873.873 0 101.747 0c0-2.297.892-3.576 1.92-4.302zM112.186 55.3c-1.077-.76-2.398-.977-3.27-.933a.873.873 0 01-.087-1.744c1.165-.058 2.897.215 4.364 1.25 1.516 1.07 2.66 2.896 2.66 5.729a.873.873 0 01-1.746 0c0-2.297-.892-3.576-1.921-4.302z" clip-rule="evenodd"/><path fill="#000" fill-rule="evenodd" d="M117.773 55.3c1.078-.76 2.399-.977 3.27-.933a.872.872 0 10.087-1.744c-1.164-.058-2.896.215-4.364 1.25-1.516 1.07-2.659 2.896-2.659 5.729a.873.873 0 001.746 0c0-2.297.892-3.576 1.92-4.302zM118.186 36.3c-1.077-.76-2.398-.977-3.27-.933a.873.873 0 01-.087-1.744c1.165-.058 2.897.215 4.364 1.25 1.516 1.07 2.66 2.896 2.66 5.729a.873.873 0 01-1.746 0c0-2.297-.892-3.576-1.921-4.302z" clip-rule="evenodd"/><path fill="#000" fill-rule="evenodd" d="M123.773 36.3c1.078-.76 2.399-.977 3.27-.933a.872.872 0 10.087-1.744c-1.164-.058-2.896.215-4.364 1.25-1.516 1.07-2.659 2.896-2.659 5.729a.873.873 0 001.746 0c0-2.297.892-3.576 1.92-4.302z" clip-rule="evenodd"/></svg>